<svg width="43" height="43" viewBox="0 0 43 43" fill="none" xmlns="http://www.w3.org/2000/svg">
<g clip-path="url(#clip0_4490_335)">
<path d="M7.72688 30.332C6.62655 30.332 5.49512 31.213 5.49512 32.7551C5.49512 34.1649 6.48991 35.1607 7.72688 35.1607C8.74792 35.1607 9.20299 34.4759 9.20299 34.4759V34.7744C9.20299 34.9155 9.33649 35.0729 9.50173 35.0729H10.2398V30.4373H9.20299V31.0256C9.20299 31.0256 8.74411 30.332 7.72688 30.332ZM7.91156 31.2799C8.81736 31.2799 9.2925 32.0759 9.2925 32.7548C9.2925 33.511 8.72837 34.2292 7.91349 34.2292C7.2323 34.2292 6.54994 33.6779 6.54994 32.7448C6.54994 31.9025 7.13715 31.2799 7.91156 31.2799Z" fill="white"/>
<path d="M11.6806 35.0725C11.5213 35.0725 11.3818 34.9583 11.3818 34.774V30.4369H12.4186V31.0105C12.6536 30.6577 13.1125 30.3301 13.8171 30.3301C14.9686 30.3301 15.5817 31.2473 15.5817 32.105V35.0725H14.8612C14.6723 35.0725 14.5449 34.9144 14.5449 34.7564V32.3333C14.5449 31.8579 14.2534 31.2805 13.5792 31.2805C12.8518 31.2805 12.4186 31.9674 12.4186 32.6142V35.0725H11.6806Z" fill="white"/>
<path d="M18.6048 30.3315C17.5044 30.3315 16.373 31.2126 16.373 32.7547C16.373 34.1645 17.3678 35.1603 18.6048 35.1603C19.6258 35.1603 20.0809 34.4755 20.0809 34.4755V34.774C20.0809 34.915 20.2144 35.0725 20.3796 35.0725H21.1177V28.1191H20.0809V31.0251C20.0809 31.0251 19.622 30.3315 18.6048 30.3315ZM18.7895 31.2794C19.6953 31.2794 20.1704 32.0754 20.1704 32.7543C20.1704 33.5106 19.6063 34.2287 18.7914 34.2287C18.1102 34.2287 17.4278 33.6775 17.4278 32.7444C17.4278 31.902 18.015 31.2794 18.7895 31.2794Z" fill="white"/>
<path d="M22.5586 35.0731C22.3993 35.0731 22.2598 34.9589 22.2598 34.7746V30.4375H23.2966V31.2101C23.4751 30.7773 23.8602 30.3848 24.5443 30.3848C24.735 30.3848 24.9133 30.4199 24.9133 30.4199V31.491C24.9133 31.491 24.6907 31.4032 24.4213 31.4032C23.6938 31.4032 23.2966 32.0902 23.2966 32.737V35.0731H22.5586Z" fill="white"/>
<path d="M31.204 35.0751C31.0447 35.0751 30.9053 34.9609 30.9053 34.7766V30.4395H31.9421V35.0751H31.204Z" fill="white"/>
<path d="M34.9827 30.3315C33.8824 30.3315 32.751 31.2126 32.751 32.7547C32.751 34.1645 33.7457 35.1603 34.9827 35.1603C36.0038 35.1603 36.4588 34.4755 36.4588 34.4755V34.774C36.4588 34.915 36.5923 35.0725 36.7576 35.0725H37.4956V28.1191H36.4588V31.0251C36.4588 31.0251 35.9999 30.3315 34.9827 30.3315ZM35.1674 31.2794C36.0732 31.2794 36.5483 32.0754 36.5483 32.7543C36.5483 33.5106 35.9842 34.2287 35.1693 34.2287C34.4881 34.2287 33.8058 33.6775 33.8058 32.7444C33.8058 31.902 34.393 31.2794 35.1674 31.2794Z" fill="white"/>
<path d="M31.417 29.4384C31.7956 29.4384 32.1025 29.1317 32.1025 28.7534C32.1025 28.3751 31.7956 28.0684 31.417 28.0684C31.0384 28.0684 30.7314 28.3751 30.7314 28.7534C30.7314 29.1317 31.0384 29.4384 31.417 29.4384Z" fill="white"/>
<path d="M27.6478 30.3301C26.4955 30.3301 25.2295 31.1896 25.2295 32.7466C25.2295 34.1654 26.3078 35.1606 27.6453 35.1606C29.2936 35.1606 30.0985 33.8365 30.0985 32.7556C30.0985 31.4291 29.0621 30.3301 27.6478 30.3301ZM27.6516 31.2976C28.4485 31.2976 29.0429 31.9393 29.0429 32.7495C29.0429 33.5737 28.4119 34.2097 27.654 34.2097C26.9504 34.2097 26.2665 33.6376 26.2665 32.7634C26.2665 31.8745 26.917 31.2976 27.6516 31.2976Z" fill="white"/>
<path d="M29.3045 12.559L31.9573 7.96731C32.1069 7.7099 32.0164 7.38292 31.7623 7.23334C31.5082 7.08376 31.1774 7.17072 31.0312 7.42814L28.3437 12.079C26.2932 11.1432 23.9852 10.6214 21.503 10.6214C19.0209 10.6214 16.7128 11.1432 14.6624 12.079L11.9749 7.42814C11.8252 7.17072 11.4979 7.08376 11.2403 7.23334C10.9827 7.38292 10.8957 7.7099 11.0454 7.96731L13.6981 12.559C9.12373 15.0357 6.02541 19.6621 5.51367 25.0781H37.4925C36.9807 19.6621 33.8823 15.0357 29.3045 12.559ZM14.1611 20.5909C13.4196 20.5909 12.8208 19.9891 12.8208 19.2517C12.8208 18.5107 13.4231 17.9124 14.1611 17.9124C14.9026 17.9124 15.5014 18.5142 15.5014 19.2517C15.5049 19.9891 14.9026 20.5909 14.1611 20.5909ZM28.8416 20.5909C28.1001 20.5909 27.5013 19.9891 27.5013 19.2517C27.5013 18.5107 28.1035 17.9124 28.8416 17.9124C29.5831 17.9124 30.1818 18.5142 30.1818 19.2517C30.1853 19.9891 29.5831 20.5909 28.8416 20.5909Z" fill="#3DDC84"/>
</g>
<defs>
<clipPath id="clip0_4490_335">
<rect width="42" height="42" fill="white" transform="translate(0.495117 0.160156)"/>
</clipPath>
</defs>
</svg>
