<svg width="24" height="24" viewBox="0 0 24 24" fill="none" xmlns="http://www.w3.org/2000/svg">
<path d="M12 5.50781C12.8906 5.50781 13.7344 5.67188 14.5312 6C15.3125 6.34375 16 6.8125 16.5938 7.40625C17.1875 8 17.6562 8.6875 18 9.46875C18.3281 10.2656 18.4922 11.1094 18.4922 12C18.4922 12.8906 18.3281 13.7344 18 14.5312C17.6562 15.3125 17.1875 16 16.5938 16.5938C16 17.1875 15.3125 17.6562 14.5312 18C13.7344 18.3281 12.8906 18.4922 12 18.4922C11.1094 18.4922 10.2656 18.3281 9.46875 18C8.6875 17.6562 8 17.1875 7.40625 16.5938C6.8125 16 6.34375 15.3125 6 14.5312C5.67188 13.7344 5.50781 12.8906 5.50781 12C5.50781 11.1094 5.67188 10.2656 6 9.46875C6.34375 8.6875 6.8125 8 7.40625 7.40625C8 6.8125 8.6875 6.34375 9.46875 6C10.2656 5.67188 11.1094 5.50781 12 5.50781ZM12 4.00781C10.8906 4.00781 9.85156 4.21094 8.88281 4.61719C7.91406 5.03906 7.06641 5.61328 6.33984 6.33984C5.61328 7.06641 5.03906 7.91406 4.61719 8.88281C4.21094 9.85156 4.00781 10.8906 4.00781 12C4.00781 13.1094 4.21094 14.1484 4.61719 15.1172C5.03906 16.0859 5.61328 16.9336 6.33984 17.6602C7.06641 18.3867 7.91406 18.9609 8.88281 19.3828C9.85156 19.7891 10.8906 19.9922 12 19.9922C13.1094 19.9922 14.1484 19.7891 15.1172 19.3828C16.0859 18.9609 16.9336 18.3867 17.6602 17.6602C18.3867 16.9336 18.9609 16.0859 19.3828 15.1172C19.7891 14.1484 19.9922 13.1094 19.9922 12C19.9922 10.8906 19.7891 9.85156 19.3828 8.88281C18.9609 7.91406 18.3867 7.06641 17.6602 6.33984C16.9336 5.61328 16.0859 5.03906 15.1172 4.61719C14.1484 4.21094 13.1094 4.00781 12 4.00781ZM12.1641 10.6641H11.6719C11.5312 10.6641 11.4102 10.7148 11.3086 10.8164C11.207 10.918 11.1562 11.0312 11.1562 11.1562V15.4922C11.1562 15.6328 11.207 15.7539 11.3086 15.8555C11.4102 15.957 11.5312 16.0078 11.6719 16.0078H12.1641C12.3047 16.0078 12.4219 15.957 12.5156 15.8555C12.6094 15.7539 12.6562 15.6328 12.6562 15.4922V11.1562C12.6562 11.0312 12.6094 10.918 12.5156 10.8164C12.4219 10.7148 12.3047 10.6641 12.1641 10.6641ZM12.6562 8.50781V8.83594C12.6562 8.97656 12.6094 9.09375 12.5156 9.1875C12.4219 9.28125 12.3047 9.32812 12.1641 9.32812H11.6719C11.5312 9.32812 11.4102 9.28125 11.3086 9.1875C11.207 9.09375 11.1562 8.97656 11.1562 8.83594V8.50781C11.1562 8.36719 11.207 8.24609 11.3086 8.14453C11.4102 8.04297 11.5312 7.99219 11.6719 7.99219H12.1641C12.3047 7.99219 12.4219 8.04297 12.5156 8.14453C12.6094 8.24609 12.6562 8.36719 12.6562 8.50781Z" fill="white"/>
</svg>
