<svg width="18" height="18" viewBox="0 0 18 18" fill="none" xmlns="http://www.w3.org/2000/svg">
<path d="M5.04727 3.52334C5.04727 3.89001 4.91836 4.20225 4.66055 4.46006C4.40273 4.71787 4.09049 4.84678 3.72383 4.84678C3.35716 4.84678 3.04492 4.71787 2.78711 4.46006C2.5293 4.20225 2.40039 3.89001 2.40039 3.52334C2.40039 3.15667 2.5293 2.84443 2.78711 2.58662C3.04492 2.32881 3.35716 2.1999 3.72383 2.1999C4.09049 2.1999 4.40273 2.32881 4.66055 2.58662C4.91836 2.84443 5.04727 3.15667 5.04727 3.52334ZM5.04727 8.7999C5.04727 9.16657 4.91836 9.47881 4.66055 9.73662C4.40273 9.99443 4.09049 10.1233 3.72383 10.1233C3.35716 10.1233 3.04492 9.99443 2.78711 9.73662C2.5293 9.47881 2.40039 9.16657 2.40039 8.7999C2.40039 8.43324 2.5293 8.121 2.78711 7.86318C3.04492 7.60537 3.35716 7.47646 3.72383 7.47646C4.09049 7.47646 4.40273 7.60537 4.66055 7.86318C4.91836 8.121 5.04727 8.43324 5.04727 8.7999ZM3.72383 15.3999C4.09049 15.3999 4.40273 15.271 4.66055 15.0132C4.91836 14.7554 5.04727 14.4431 5.04727 14.0765C5.04727 13.7098 4.91836 13.3976 4.66055 13.1397C4.40273 12.8819 4.09049 12.753 3.72383 12.753C3.35716 12.753 3.04492 12.8819 2.78711 13.1397C2.5293 13.3976 2.40039 13.7098 2.40039 14.0765C2.40039 14.4431 2.5293 14.7554 2.78711 15.0132C3.04492 15.271 3.35716 15.3999 3.72383 15.3999ZM10.3238 3.52334C10.3238 3.89001 10.1949 4.20225 9.93711 4.46006C9.6793 4.71787 9.36706 4.84678 9.00039 4.84678C8.63372 4.84678 8.32148 4.71787 8.06367 4.46006C7.80586 4.20225 7.67695 3.89001 7.67695 3.52334C7.67695 3.15667 7.80586 2.84443 8.06367 2.58662C8.32148 2.32881 8.63372 2.1999 9.00039 2.1999C9.36706 2.1999 9.6793 2.32881 9.93711 2.58662C10.1949 2.84443 10.3238 3.15667 10.3238 3.52334ZM9.00039 10.1233C9.36706 10.1233 9.6793 9.99443 9.93711 9.73662C10.1949 9.47881 10.3238 9.16657 10.3238 8.7999C10.3238 8.43324 10.1949 8.121 9.93711 7.86318C9.6793 7.60537 9.36706 7.47646 9.00039 7.47646C8.63372 7.47646 8.32148 7.60537 8.06367 7.86318C7.80586 8.121 7.67695 8.43324 7.67695 8.7999C7.67695 9.16657 7.80586 9.47881 8.06367 9.73662C8.32148 9.99443 8.63372 10.1233 9.00039 10.1233ZM10.3238 14.0765C10.3238 14.4431 10.1949 14.7554 9.93711 15.0132C9.6793 15.271 9.36706 15.3999 9.00039 15.3999C8.63372 15.3999 8.32148 15.271 8.06367 15.0132C7.80586 14.7554 7.67695 14.4431 7.67695 14.0765C7.67695 13.7098 7.80586 13.3976 8.06367 13.1397C8.32148 12.8819 8.63372 12.753 9.00039 12.753C9.36706 12.753 9.6793 12.8819 9.93711 13.1397C10.1949 13.3976 10.3238 13.7098 10.3238 14.0765ZM14.277 4.84678C14.6436 4.84678 14.9559 4.71787 15.2137 4.46006C15.4715 4.20225 15.6004 3.89001 15.6004 3.52334C15.6004 3.15667 15.4715 2.84443 15.2137 2.58662C14.9559 2.32881 14.6436 2.1999 14.277 2.1999C13.9103 2.1999 13.598 2.32881 13.3402 2.58662C13.0824 2.84443 12.9535 3.15667 12.9535 3.52334C12.9535 3.89001 13.0824 4.20225 13.3402 4.46006C13.598 4.71787 13.9103 4.84678 14.277 4.84678ZM15.6004 8.7999C15.6004 9.16657 15.4715 9.47881 15.2137 9.73662C14.9559 9.99443 14.6436 10.1233 14.277 10.1233C13.9103 10.1233 13.598 9.99443 13.3402 9.73662C13.0824 9.47881 12.9535 9.16657 12.9535 8.7999C12.9535 8.43324 13.0824 8.121 13.3402 7.86318C13.598 7.60537 13.9103 7.47646 14.277 7.47646C14.6436 7.47646 14.9559 7.60537 15.2137 7.86318C15.4715 8.121 15.6004 8.43324 15.6004 8.7999ZM14.277 15.3999C14.6436 15.3999 14.9559 15.271 15.2137 15.0132C15.4715 14.7554 15.6004 14.4431 15.6004 14.0765C15.6004 13.7098 15.4715 13.3976 15.2137 13.1397C14.9559 12.8819 14.6436 12.753 14.277 12.753C13.9103 12.753 13.598 12.8819 13.3402 13.1397C13.0824 13.3976 12.9535 13.7098 12.9535 14.0765C12.9535 14.4431 13.0824 14.7554 13.3402 15.0132C13.598 15.271 13.9103 15.3999 14.277 15.3999Z" fill="white"/>
</svg>
